<mxfile host="drawio-plugin" modified="2022-07-05T10:43:40.613Z" agent="5.0 (X11; Linux x86_64) AppleWebKit/537.36 (KHTML, like Gecko) Chrome/97.0.4692.45 Safari/537.36" etag="rqcg8fZ_Jl295Kia4OXw" version="15.5.4" type="embed"><diagram id="UhWae0RSAiLkKw91R0bq" name="Page-1"><mxGraphModel dx="2156" dy="650" grid="1" gridSize="10" guides="1" tooltips="1" connect="1" arrows="1" fold="1" page="1" pageScale="1" pageWidth="850" pageHeight="1100" math="0" shadow="0"><root><mxCell id="0"/><mxCell id="1" parent="0"/><mxCell id="ImFIG5cDVqNbTnt62ps9-1" value="Xem catalog sản phẩm" style="ellipse;whiteSpace=wrap;html=1;" parent="1" vertex="1"><mxGeometry x="70" y="250" width="120" height="80" as="geometry"/></mxCell><mxCell id="ImFIG5cDVqNbTnt62ps9-2" value="Thay đổi giỏ hàng (cart)" style="ellipse;whiteSpace=wrap;html=1;" parent="1" vertex="1"><mxGeometry x="70" y="400" width="120" height="80" as="geometry"/></mxCell><mxCell id="ImFIG5cDVqNbTnt62ps9-3" value="&amp;lt;extends&amp;gt;" style="endArrow=classic;html=1;rounded=0;dashed=1;" parent="1" source="ImFIG5cDVqNbTnt62ps9-1" target="ImFIG5cDVqNbTnt62ps9-2" edge="1"><mxGeometry width="50" height="50" relative="1" as="geometry"><mxPoint x="280" y="360" as="sourcePoint"/><mxPoint x="330" y="310" as="targetPoint"/></mxGeometry></mxCell><mxCell id="ImFIG5cDVqNbTnt62ps9-4" value="Chốt đơn (tạo đơn hàng)" style="ellipse;whiteSpace=wrap;html=1;" parent="1" vertex="1"><mxGeometry x="70" y="540" width="120" height="80" as="geometry"/></mxCell><mxCell id="ImFIG5cDVqNbTnt62ps9-6" value="extends" style="endArrow=classic;html=1;rounded=0;dashed=1;" parent="1" source="ImFIG5cDVqNbTnt62ps9-2" target="ImFIG5cDVqNbTnt62ps9-4" edge="1"><mxGeometry width="50" height="50" relative="1" as="geometry"><mxPoint x="710" y="310" as="sourcePoint"/><mxPoint x="760" y="260" as="targetPoint"/></mxGeometry></mxCell><mxCell id="ImFIG5cDVqNbTnt62ps9-7" value="Customer" style="shape=umlActor;verticalLabelPosition=bottom;verticalAlign=top;html=1;outlineConnect=0;" parent="1" vertex="1"><mxGeometry x="-60" y="270" width="30" height="60" as="geometry"/></mxCell><mxCell id="ImFIG5cDVqNbTnt62ps9-9" value="" style="endArrow=none;html=1;rounded=0;dashed=1;exitX=0.5;exitY=0.5;exitDx=0;exitDy=0;exitPerimeter=0;" parent="1" source="ImFIG5cDVqNbTnt62ps9-7" target="ImFIG5cDVqNbTnt62ps9-1" edge="1"><mxGeometry width="50" height="50" relative="1" as="geometry"><mxPoint x="110" y="580" as="sourcePoint"/><mxPoint x="160" y="530" as="targetPoint"/></mxGeometry></mxCell><mxCell id="ImFIG5cDVqNbTnt62ps9-10" value="Xem chi tiết sản phẩm" style="ellipse;whiteSpace=wrap;html=1;" parent="1" vertex="1"><mxGeometry x="320" y="250" width="120" height="80" as="geometry"/></mxCell><mxCell id="ImFIG5cDVqNbTnt62ps9-11" value="&amp;lt;extends&amp;gt;" style="endArrow=classic;html=1;rounded=0;dashed=1;" parent="1" source="ImFIG5cDVqNbTnt62ps9-1" target="ImFIG5cDVqNbTnt62ps9-10" edge="1"><mxGeometry width="50" height="50" relative="1" as="geometry"><mxPoint x="360" y="220" as="sourcePoint"/><mxPoint x="410" y="170" as="targetPoint"/></mxGeometry></mxCell><mxCell id="ImFIG5cDVqNbTnt62ps9-15" value="Lọc sẩn phẩm theo tên sản phẩm, mã, khoảng giá, phân loại ngành hàng" style="ellipse;whiteSpace=wrap;html=1;" parent="1" vertex="1"><mxGeometry x="100" y="80" width="170" height="110" as="geometry"/></mxCell><mxCell id="ImFIG5cDVqNbTnt62ps9-17" value="&amp;lt;extends&amp;gt;" style="endArrow=classic;html=1;rounded=0;dashed=1;" parent="1" source="ImFIG5cDVqNbTnt62ps9-1" target="ImFIG5cDVqNbTnt62ps9-15" edge="1"><mxGeometry width="50" height="50" relative="1" as="geometry"><mxPoint x="30" y="210" as="sourcePoint"/><mxPoint x="80" y="160" as="targetPoint"/></mxGeometry></mxCell><mxCell id="ImFIG5cDVqNbTnt62ps9-21" value="Admin (seller)" style="shape=umlActor;verticalLabelPosition=bottom;verticalAlign=top;html=1;outlineConnect=0;" parent="1" vertex="1"><mxGeometry x="-85" y="840" width="30" height="60" as="geometry"/></mxCell><mxCell id="ImFIG5cDVqNbTnt62ps9-22" value="Quản lý sản phẩm (thêm, sửa, xóa)" style="ellipse;whiteSpace=wrap;html=1;" parent="1" vertex="1"><mxGeometry x="75" y="710" width="120" height="80" as="geometry"/></mxCell><mxCell id="ImFIG5cDVqNbTnt62ps9-23" value="Quản lý đơn hàng (thay đổi trạng thái đơn hàng)" style="ellipse;whiteSpace=wrap;html=1;" parent="1" vertex="1"><mxGeometry x="75" y="830" width="120" height="80" as="geometry"/></mxCell><mxCell id="ImFIG5cDVqNbTnt62ps9-24" value="Lọc, tìm kiếm" style="ellipse;whiteSpace=wrap;html=1;" parent="1" vertex="1"><mxGeometry x="305" y="830" width="120" height="80" as="geometry"/></mxCell><mxCell id="ImFIG5cDVqNbTnt62ps9-25" value="&amp;lt;extends&amp;gt;" style="endArrow=classic;html=1;rounded=0;dashed=1;" parent="1" source="ImFIG5cDVqNbTnt62ps9-23" target="ImFIG5cDVqNbTnt62ps9-24" edge="1"><mxGeometry width="50" height="50" relative="1" as="geometry"><mxPoint x="255" y="840" as="sourcePoint"/><mxPoint x="305" y="790" as="targetPoint"/></mxGeometry></mxCell><mxCell id="ImFIG5cDVqNbTnt62ps9-26" value="Lọc, tìm kiếm" style="ellipse;whiteSpace=wrap;html=1;" parent="1" vertex="1"><mxGeometry x="270" y="680" width="120" height="80" as="geometry"/></mxCell><mxCell id="ImFIG5cDVqNbTnt62ps9-27" value="&amp;lt;extends&amp;gt;" style="endArrow=classic;html=1;rounded=0;dashed=1;" parent="1" source="ImFIG5cDVqNbTnt62ps9-22" target="ImFIG5cDVqNbTnt62ps9-26" edge="1"><mxGeometry width="50" height="50" relative="1" as="geometry"><mxPoint x="265" y="720" as="sourcePoint"/><mxPoint x="315" y="670" as="targetPoint"/></mxGeometry></mxCell><mxCell id="ImFIG5cDVqNbTnt62ps9-31" value="" style="endArrow=none;html=1;rounded=0;" parent="1" source="ImFIG5cDVqNbTnt62ps9-21" target="ImFIG5cDVqNbTnt62ps9-22" edge="1"><mxGeometry width="50" height="50" relative="1" as="geometry"><mxPoint x="-145" y="710" as="sourcePoint"/><mxPoint x="-95" y="660" as="targetPoint"/></mxGeometry></mxCell><mxCell id="ImFIG5cDVqNbTnt62ps9-32" value="" style="endArrow=none;html=1;rounded=0;" parent="1" source="ImFIG5cDVqNbTnt62ps9-21" target="ImFIG5cDVqNbTnt62ps9-23" edge="1"><mxGeometry width="50" height="50" relative="1" as="geometry"><mxPoint x="-65" y="990" as="sourcePoint"/><mxPoint x="15" y="930" as="targetPoint"/></mxGeometry></mxCell><mxCell id="ImFIG5cDVqNbTnt62ps9-33" value="Thống kê" style="ellipse;whiteSpace=wrap;html=1;" parent="1" vertex="1"><mxGeometry x="75" y="940" width="120" height="80" as="geometry"/></mxCell><mxCell id="ImFIG5cDVqNbTnt62ps9-34" value="" style="endArrow=none;html=1;rounded=0;" parent="1" source="ImFIG5cDVqNbTnt62ps9-21" target="ImFIG5cDVqNbTnt62ps9-33" edge="1"><mxGeometry width="50" height="50" relative="1" as="geometry"><mxPoint x="-65" y="790" as="sourcePoint"/><mxPoint x="-5" y="960" as="targetPoint"/></mxGeometry></mxCell></root></mxGraphModel></diagram></mxfile>